<svg xmlns="http://www.w3.org/2000/svg" viewBox="0 0 120 40" width="120" height="40">
  <!-- imbus Text als Pfad für bessere Kompatibilität -->
  <g fill="#00a651">
    <!-- i -->
    <rect x="8" y="12" width="3" height="20" rx="1"/>
    <circle cx="9.5" cy="8" r="2"/>
    
    <!-- m -->
    <rect x="16" y="12" width="3" height="20" rx="1"/>
    <rect x="22" y="12" width="3" height="20" rx="1"/>
    <rect x="28" y="12" width="3" height="20" rx="1"/>
    <rect x="16" y="12" width="15" height="3" rx="1"/>
    
    <!-- b -->
    <rect x="36" y="8" width="3" height="24" rx="1"/>
    <rect x="36" y="12" width="8" height="3" rx="1"/>
    <rect x="36" y="20" width="8" height="3" rx="1"/>
    <rect x="36" y="29" width="8" height="3" rx="1"/>
    <rect x="44" y="15" width="3" height="5" rx="1"/>
    <rect x="44" y="23" width="3" height="6" rx="1"/>
    
    <!-- u -->
    <rect x="52" y="12" width="3" height="20" rx="1"/>
    <rect x="58" y="12" width="3" height="20" rx="1"/>
    <rect x="52" y="29" width="9" height="3" rx="1"/>
    
    <!-- s -->
    <rect x="66" y="12" width="8" height="3" rx="1"/>
    <rect x="66" y="20" width="8" height="3" rx="1"/>
    <rect x="66" y="29" width="8" height="3" rx="1"/>
    <rect x="66" y="15" width="3" height="5" rx="1"/>
    <rect x="71" y="23" width="3" height="6" rx="1"/>
  </g>
  
  <!-- Dekorative Elemente -->
  <circle cx="85" cy="15" r="2" fill="#00c95f"/>
  <circle cx="90" cy="20" r="2" fill="#66d9a4"/>
  <circle cx="95" cy="25" r="2" fill="#00a651"/>
</svg>